<svg xmlns="http://www.w3.org/2000/svg" viewBox="0 0 24 24" width="25px">
    <path d="M20 16h-6l-1 8h-2l-1-8H4V0h16z"></path>
    <path class="wb-shape-1" fill="#fff" d="M17 8c0-2.69-2.31-5-5-5S7 5.31 7 8s2.31 5 5 5 5-2.31 5-5zM8.25 9.97c-.34-.568-.492-1.25-.492-1.97 0-1.099.379-2.083 1.174-2.917.796-.833 1.78-1.287 2.879-1.325l-.53 3.826L8.25 9.97zM16.243 8c0 .72-.152 1.363-.455 1.932l-2.992-2.349-.569-3.826c1.099.038 2.046.493 2.841 1.326.796.834 1.175 1.819 1.175 2.917zm-.682 2.349c-.758 1.174-2.083 1.894-3.561 1.894-1.478 0-2.765-.72-3.522-1.894L12 8.909l3.56 1.44z"></path>
</svg>